<svg width="30" height="30" viewBox="0 0 30 30" fill="none" xmlns="http://www.w3.org/2000/svg">
<g id="00.icons/close">
<path id="Vector (Stroke)" fill-rule="evenodd" clip-rule="evenodd" d="M5.67862 5.67862C6.16677 5.19046 6.95823 5.19046 7.44638 5.67862L15 13.2322L22.5536 5.67862C23.0418 5.19046 23.8332 5.19046 24.3214 5.67862C24.8095 6.16677 24.8095 6.95823 24.3214 7.44638L16.7678 15L24.3214 22.5536C24.8095 23.0418 24.8095 23.8332 24.3214 24.3214C23.8332 24.8095 23.0418 24.8095 22.5536 24.3214L15 16.7678L7.44638 24.3214C6.95823 24.8095 6.16677 24.8095 5.67862 24.3214C5.19046 23.8332 5.19046 23.0418 5.67862 22.5536L13.2322 15L5.67862 7.44638C5.19046 6.95823 5.19046 6.16677 5.67862 5.67862Z" fill="white"/>
</g>
</svg>
