<svg width="26" height="26" viewBox="0 0 26 26" fill="none" xmlns="http://www.w3.org/2000/svg">
<g id="Icon">
<path id="v2 (Stroke)" fill-rule="evenodd" clip-rule="evenodd" d="M6.5 6.5C6.5 2.91015 9.41015 0 13 0C16.5899 0 19.5 2.91015 19.5 6.5C19.5 9.81469 17.0189 12.5499 13.8125 12.9497V21.9375C13.8125 22.3862 13.4487 22.75 13 22.75C12.5513 22.75 12.1875 22.3862 12.1875 21.9375V12.9497C8.98112 12.5499 6.5 9.81469 6.5 6.5ZM10.5516 20.4331C10.6249 20.8758 10.3255 21.2942 9.88278 21.3675C8.72668 21.559 7.80419 21.8463 7.19457 22.1675C6.88938 22.3283 6.69858 22.4789 6.59293 22.5987C6.54222 22.6561 6.51882 22.6978 6.50856 22.7214C6.50356 22.7329 6.50159 22.7403 6.5008 22.744C6.50004 22.7475 6.5 22.75 6.5 22.75C6.5 22.75 6.49992 22.7541 6.50248 22.7625C6.50524 22.7715 6.51205 22.7894 6.5285 22.8162C6.56298 22.8724 6.63331 22.9568 6.76507 23.0607C7.03334 23.2721 7.47188 23.498 8.08622 23.7028C9.30639 24.1095 11.0437 24.375 13 24.375C14.9563 24.375 16.6936 24.1095 17.9138 23.7028C18.5281 23.498 18.9667 23.2721 19.2349 23.0607C19.3667 22.9568 19.437 22.8724 19.4715 22.8162C19.488 22.7894 19.4948 22.7715 19.4975 22.7625C19.5 22.7543 19.5 22.7501 19.5 22.7501C19.5 22.7501 19.5 22.7475 19.4992 22.744C19.4984 22.7403 19.4964 22.7329 19.4914 22.7214C19.4812 22.6978 19.4578 22.6561 19.4071 22.5987C19.3014 22.4789 19.1106 22.3283 18.8054 22.1675C18.1958 21.8463 17.2733 21.559 16.1172 21.3675C15.6745 21.2942 15.3751 20.8758 15.4484 20.4331C15.5218 19.9904 15.9401 19.691 16.3828 19.7643C17.6345 19.9717 18.7432 20.2979 19.5629 20.7298C20.3139 21.1255 21.125 21.7773 21.125 22.75C21.125 23.4422 20.7034 23.9724 20.2408 24.337C19.769 24.7088 19.1366 25.0081 18.4277 25.2444C17.0012 25.7199 15.0823 26 13 26C10.9177 26 8.99877 25.7199 7.57235 25.2444C6.86338 25.0081 6.23103 24.7088 5.75924 24.337C5.2966 23.9724 4.875 23.4422 4.875 22.75C4.875 21.7773 5.68607 21.1255 6.43708 20.7298C7.25677 20.2979 8.36553 19.9717 9.61722 19.7643C10.0599 19.691 10.4782 19.9904 10.5516 20.4331Z" fill="#030E43"/>
</g>
</svg>
