<svg width="26" height="26" viewBox="0 0 26 26" fill="none" xmlns="http://www.w3.org/2000/svg">
<g id="telephone">
<path id="telephone_2" d="M5.93754 2.1588C5.53058 1.63555 4.75711 1.5874 4.28838 2.05612L2.60826 3.73625C1.82261 4.5219 1.53379 5.63494 1.87704 6.61126C3.25549 10.532 5.51225 14.2134 8.64942 17.3506C11.7866 20.4878 15.468 22.7445 19.3887 24.123C20.3651 24.4662 21.4781 24.1774 22.2638 23.3917L23.9439 21.7116C24.4126 21.2429 24.3644 20.4694 23.8412 20.0625L20.0936 17.1477C19.8263 16.9398 19.4783 16.8663 19.1498 16.9485L15.5925 17.8378C14.6263 18.0793 13.6042 17.7962 12.9 17.092L8.90804 13.1C8.2038 12.3958 7.92069 11.3737 8.16225 10.4075L9.05155 6.85023C9.13369 6.52171 9.06022 6.17366 8.85231 5.90636L5.93754 2.1588ZM3.06276 0.830498C4.26869 -0.375438 6.25868 -0.251545 7.30573 1.09466L10.2205 4.84222C10.7554 5.52994 10.9444 6.42539 10.7331 7.27062L9.84379 10.8278C9.7499 11.2034 9.85994 11.6007 10.1337 11.8744L14.1256 15.8663C14.3993 16.1401 14.7966 16.2501 15.1722 16.1562L18.7294 15.2669C19.5746 15.0556 20.4701 15.2446 21.1578 15.7795L24.9053 18.6943C26.2515 19.7413 26.3754 21.7313 25.1695 22.9372L23.4894 24.6174C22.2873 25.8194 20.4894 26.3472 18.8138 25.7581C14.6535 24.2955 10.7484 21.9008 7.4238 18.5762C4.09922 15.2516 1.70454 11.3465 0.241862 7.18616C-0.347234 5.51058 0.180586 3.71267 1.38263 2.51062L3.06276 0.830498Z" fill="#030E43"/>
</g>
</svg>
