<svg width="30" height="30" viewBox="0 0 30 30" fill="none" xmlns="http://www.w3.org/2000/svg">
<g id="00.icons/burger">
<path id="Vector (Stroke)" fill-rule="evenodd" clip-rule="evenodd" d="M2.5 7.50146C2.5 6.81111 3.05964 6.25146 3.75 6.25146H26.25C26.9404 6.25146 27.5 6.81111 27.5 7.50146C27.5 8.19182 26.9404 8.75146 26.25 8.75146H3.75C3.05964 8.75146 2.5 8.19182 2.5 7.50146ZM2.5 15.0015C2.5 14.3111 3.05964 13.7515 3.75 13.7515H26.25C26.9404 13.7515 27.5 14.3111 27.5 15.0015C27.5 15.6918 26.9404 16.2515 26.25 16.2515H3.75C3.05964 16.2515 2.5 15.6918 2.5 15.0015ZM2.5 22.5015C2.5 21.8111 3.05964 21.2515 3.75 21.2515H26.25C26.9404 21.2515 27.5 21.8111 27.5 22.5015C27.5 23.1918 26.9404 23.7515 26.25 23.7515H3.75C3.05964 23.7515 2.5 23.1918 2.5 22.5015Z" fill="white"/>
</g>
</svg>
