<svg width="26" height="26" viewBox="0 0 26 26" fill="none" xmlns="http://www.w3.org/2000/svg">
<g id="Icon">
<path id="Rectangle 394 (Stroke)" d="M0 6.5C0 4.70507 1.45507 3.25 3.25 3.25H22.75C24.5449 3.25 26 4.70507 26 6.5V19.5C26 21.2949 24.5449 22.75 22.75 22.75H3.25C1.45508 22.75 0 21.2949 0 19.5V6.5ZM3.25 4.875C2.35254 4.875 1.625 5.60254 1.625 6.5V6.85247L13 13.6775L24.375 6.85247V6.5C24.375 5.60254 23.6475 4.875 22.75 4.875H3.25ZM24.375 8.74753L16.7244 13.3379L24.375 18.046V8.74753ZM24.3201 19.9203L15.1545 14.2798L13 15.5725L10.8455 14.2798L1.67987 19.9203C1.86508 20.614 2.49787 21.125 3.25 21.125H22.75C23.5021 21.125 24.1349 20.614 24.3201 19.9203ZM1.625 18.046L9.27562 13.3379L1.625 8.74753V18.046Z" fill="#030E43"/>
</g>
</svg>
